<svg version="1.2" baseProfile="tiny-ps" xmlns="http://www.w3.org/2000/svg" viewBox="0 0 91 20" width="91" height="20">
	<title>Home</title>
	<style>
		tspan { white-space:pre }
		.shp0 { fill: #111111 } 
	</style>
	<g id="Home">
		<path id="Logo" fill-rule="evenodd" class="shp0" d="M9.82 0.12C12.36 0.12 15.09 0.67 17.04 2.44L14.63 4.88C13.38 3.69 11.53 3.09 9.82 3.09C6.05 3.09 3.5 6 3.5 9.67C3.5 13.46 5.89 16.5 9.84 16.5C11.22 16.5 12.83 16.27 14.13 15.54L14.13 11.2L10.36 11.2L10.36 8.24L17.41 8.24L17.41 17.65C14.96 18.95 12.39 19.47 9.82 19.47C4.1 19.47 0.07 15.57 0.07 9.87C0.07 4.08 4.02 0.12 9.82 0.12ZM26.66 6.21C30.61 6.21 32.51 9.2 32.51 12.97L32.51 13.85L22.99 13.85C23.2 15.65 24.55 16.82 26.35 16.82C27.75 16.82 28.82 16.22 29.7 15.13L31.94 16.82C30.58 18.48 28.79 19.31 26.66 19.31C22.84 19.31 19.87 16.66 19.87 12.76C19.87 8.89 22.84 6.21 26.66 6.21ZM22.99 11.51L29.39 11.51C29.36 9.56 28.04 8.55 26.19 8.55C24.34 8.55 23.23 9.74 22.99 11.51ZM41.76 6.21C45.48 6.21 46.31 9.09 46.31 11.02L46.31 19L43.19 19L43.19 12.53C43.19 10.03 42.38 9.02 40.9 9.02C38.9 9.02 38.04 10.47 38.04 12.14L38.04 19L34.92 19L34.92 6.52L37.88 6.52L37.88 8.52L37.94 8.52C38.69 6.88 40.12 6.21 41.76 6.21ZM55.51 6.21C59.46 6.21 61.36 9.2 61.36 12.97L61.36 13.85L51.84 13.85C52.05 15.65 53.4 16.82 55.19 16.82C56.6 16.82 57.66 16.22 58.55 15.13L60.78 16.82C59.43 18.48 57.64 19.31 55.51 19.31C51.68 19.31 48.72 16.66 48.72 12.76C48.72 8.89 51.68 6.21 55.51 6.21ZM51.84 11.51L58.24 11.51C58.21 9.56 56.88 8.55 55.04 8.55C53.19 8.55 52.07 9.74 51.84 11.51ZM68.03 6.21C69.98 6.21 71.59 6.88 72.5 8.11L70.42 9.98C69.8 9.12 69.02 8.7 67.98 8.7C66.97 8.7 66.16 9.22 66.16 10.03C66.16 11.04 67.56 11.23 69.12 11.59C71.05 12.03 72.89 12.73 72.89 15.31C72.89 17.93 70.58 19.31 67.49 19.31C65.56 19.31 63.92 18.82 62.65 17.39L64.73 15.44C65.8 16.61 66.63 16.97 67.69 16.97C68.84 16.97 69.77 16.4 69.77 15.54C69.77 14.35 68.27 14.14 66.68 13.77C64.99 13.38 63.04 12.79 63.04 10.24C63.04 7.2 65.9 6.21 68.03 6.21ZM76.4 0.41C77.54 0.41 78.43 1.22 78.43 2.28C78.43 3.4 77.52 4.15 76.4 4.15C75.28 4.15 74.42 3.3 74.42 2.28C74.42 1.27 75.28 0.41 76.4 0.41ZM74.86 6.52L77.98 6.52L77.98 19L74.86 19L74.86 6.52ZM85.34 6.21C87.29 6.21 88.9 6.88 89.81 8.11L87.73 9.98C87.1 9.12 86.32 8.7 85.28 8.7C84.27 8.7 83.46 9.22 83.46 10.03C83.46 11.04 84.87 11.23 86.43 11.59C88.35 12.03 90.2 12.73 90.2 15.31C90.2 17.93 87.88 19.31 84.79 19.31C82.87 19.31 81.23 18.82 79.95 17.39L82.03 15.44C83.1 16.61 83.93 16.97 85 16.97C86.14 16.97 87.08 16.4 87.08 15.54C87.08 14.35 85.57 14.14 83.98 13.77C82.29 13.38 80.34 12.79 80.34 10.24C80.34 7.2 83.2 6.21 85.34 6.21Z" />
	</g>
</svg>