<svg width="528" height="582" viewBox="0 0 528 582" fill="none" xmlns="http://www.w3.org/2000/svg">
<g filter="url(#filter0_ddd)">
<mask id="mask0" style="mask-type:alpha" maskUnits="userSpaceOnUse" x="4" y="62" width="520" height="512">
<path fill-rule="evenodd" clip-rule="evenodd" d="M4.00122 62.3014H523.785V573.31H4.00122V62.3014Z" fill="white"/>
</mask>
<g mask="url(#mask0)">
<path fill-rule="evenodd" clip-rule="evenodd" d="M460.451 550.18C447.001 558.28 431.351 564.13 414.101 567.93C402.651 570.43 390.451 572.08 377.751 572.78C331.051 575.63 277.351 566.88 225.601 549.38C214.001 545.48 202.501 541.13 191.201 536.33C107.051 500.93 33.9011 443.13 13.4011 376.13C-24.049 253.83 56.3511 165.88 149.451 85.18C187.201 52.43 236.401 57.13 287.301 84.78C299.201 91.23 311.151 98.93 323.101 107.68C367.951 140.63 412.351 188.58 449.851 241.88C523.451 346.53 566.051 486.73 460.451 550.18Z" fill="#FDE6D6"/>
</g>
<path fill-rule="evenodd" clip-rule="evenodd" d="M421.217 155.935C412.532 138.425 409.352 116.265 426.767 109.13C446.217 101.165 477.207 114.045 486.227 143.27C491.992 161.945 490.012 188.015 474.082 198.035C460.452 206.615 431.872 177.41 421.217 155.935Z" fill="#E8E5EA"/>
<path fill-rule="evenodd" clip-rule="evenodd" d="M145.485 66.8425C145.47 66.8425 145.455 66.8425 145.44 66.8425C142.095 66.6125 138.74 66.4875 135.48 66.4675C135.13 66.4675 134.855 66.1875 134.855 65.8425C134.86 65.4975 135.135 65.2175 135.48 65.2175H135.485C138.775 65.2375 142.155 65.3625 145.53 65.5925C145.875 65.6175 146.13 65.9175 146.11 66.2625C146.085 66.5925 145.81 66.8425 145.485 66.8425ZM115.515 67.8025C115.21 67.8025 114.94 67.5775 114.895 67.2675C114.845 66.9275 115.08 66.6075 115.425 66.5575C118.655 66.0875 122.025 65.7375 125.43 65.5125C125.82 65.4475 126.075 65.7525 126.095 66.0975C126.12 66.4375 125.86 66.7375 125.515 66.7575C122.14 66.9825 118.805 67.3325 115.605 67.7925C115.575 67.7975 115.545 67.8025 115.515 67.8025ZM165.355 69.3175C165.315 69.3175 165.28 69.3125 165.245 69.3075C161.96 68.7175 158.64 68.2175 155.375 67.8075C155.03 67.7625 154.785 67.4525 154.83 67.1075C154.875 66.7675 155.16 66.5375 155.53 66.5675C158.82 66.9775 162.16 67.4875 165.465 68.0775C165.8 68.1375 166.03 68.4625 165.97 68.8025C165.915 69.1025 165.65 69.3175 165.355 69.3175ZM96.0249 72.3175C95.7599 72.3175 95.5149 72.1475 95.4299 71.8775C95.3249 71.5475 95.5099 71.1975 95.8399 71.0975C99.0049 70.0975 102.265 69.2075 105.535 68.4425C105.865 68.3625 106.21 68.5725 106.285 68.9075C106.365 69.2425 106.155 69.5775 105.82 69.6575C102.58 70.4175 99.3449 71.3025 96.2149 72.2875C96.1499 72.3075 96.0899 72.3175 96.0249 72.3175ZM184.895 73.6975C184.84 73.6975 184.785 73.6925 184.73 73.6775C181.48 72.7975 178.22 71.9925 175.035 71.2775C174.695 71.2025 174.485 70.8675 174.56 70.5275C174.635 70.1925 174.95 69.9775 175.305 70.0575C178.51 70.7775 181.79 71.5875 185.06 72.4675C185.39 72.5625 185.59 72.9025 185.495 73.2375C185.42 73.5125 185.17 73.6975 184.895 73.6975ZM204.03 79.6475C203.96 79.6475 203.89 79.6375 203.82 79.6125C200.69 78.5075 197.495 77.4525 194.335 76.4675C194.005 76.3625 193.82 76.0125 193.925 75.6875C194.025 75.3575 194.38 75.1675 194.705 75.2775C197.88 76.2625 201.09 77.3275 204.235 78.4325C204.56 78.5475 204.735 78.9075 204.62 79.2325C204.53 79.4875 204.29 79.6475 204.03 79.6475ZM77.5099 79.8425C77.2849 79.8425 77.0649 79.7175 76.9549 79.4975C76.7999 79.1925 76.9199 78.8175 77.2299 78.6575C80.1749 77.1575 83.2549 75.7525 86.3799 74.4875C86.6899 74.3475 87.0599 74.5125 87.1899 74.8325C87.3199 75.1525 87.1649 75.5175 86.8449 75.6475C83.7549 76.8975 80.7099 78.2875 77.7949 79.7725C77.7049 79.8175 77.6049 79.8425 77.5099 79.8425ZM222.71 86.8925C222.63 86.8925 222.55 86.8775 222.465 86.8425C219.405 85.5425 216.29 84.2725 213.2 83.0775C212.88 82.9525 212.72 82.5875 212.845 82.2675C212.975 81.9475 213.335 81.7975 213.655 81.9125C216.755 83.1125 219.885 84.3875 222.955 85.6925C223.275 85.8275 223.42 86.1925 223.29 86.5125C223.185 86.7475 222.955 86.8925 222.71 86.8925ZM60.6099 90.4975C60.4199 90.4975 60.2399 90.4175 60.1149 90.2575C59.9049 89.9825 59.9549 89.5875 60.2299 89.3775C62.8549 87.3575 65.6299 85.4175 68.4749 83.6225C68.7699 83.4425 69.1549 83.5275 69.3399 83.8175C69.5249 84.1125 69.4349 84.4975 69.1449 84.6775C66.3299 86.4575 63.5899 88.3725 60.9899 90.3725C60.8799 90.4575 60.7449 90.4975 60.6099 90.4975ZM240.92 95.2525C240.83 95.2525 240.735 95.2325 240.645 95.1875C237.635 93.7025 234.6 92.2575 231.615 90.8875C231.305 90.7425 231.165 90.3675 231.31 90.0575C231.455 89.7425 231.825 89.6025 232.14 89.7475C235.13 91.1225 238.18 92.5775 241.2 94.0625C241.51 94.2175 241.635 94.5925 241.485 94.9025C241.375 95.1225 241.15 95.2525 240.92 95.2525ZM46.0049 104.133C45.8549 104.133 45.7099 104.083 45.5899 103.973C45.3299 103.748 45.3099 103.353 45.5399 103.093C47.7549 100.598 50.1149 98.1725 52.5599 95.8925C52.8099 95.6525 53.2049 95.6675 53.4399 95.9175C53.6799 96.1725 53.6649 96.5675 53.4099 96.8025C50.9999 99.0625 48.6649 101.458 46.4699 103.923C46.3499 104.063 46.1799 104.133 46.0049 104.133ZM258.655 104.583C258.55 104.583 258.45 104.558 258.35 104.503C255.445 102.878 252.485 101.273 249.56 99.7325C249.255 99.5725 249.135 99.1925 249.295 98.8875C249.46 98.5825 249.84 98.4625 250.14 98.6225C253.08 100.173 256.045 101.783 258.96 103.413C259.26 103.583 259.37 103.963 259.2 104.263C259.085 104.468 258.875 104.583 258.655 104.583ZM275.905 114.793C275.795 114.793 275.68 114.763 275.575 114.698C272.725 112.918 269.85 111.173 267.03 109.503C266.73 109.328 266.63 108.943 266.81 108.648C266.98 108.343 267.365 108.248 267.665 108.428C270.49 110.098 273.38 111.853 276.24 113.638C276.53 113.823 276.62 114.208 276.435 114.503C276.32 114.688 276.115 114.793 275.905 114.793ZM34.1199 120.213C34.0049 120.213 33.8949 120.183 33.7899 120.118C33.4999 119.938 33.4049 119.553 33.5849 119.258C35.3449 116.393 37.2399 113.583 39.2049 110.913C39.4149 110.638 39.8049 110.583 40.0799 110.783C40.3599 110.988 40.4149 111.378 40.2099 111.653C38.2649 114.298 36.3949 117.073 34.6499 119.913C34.5349 120.108 34.3299 120.213 34.1199 120.213ZM292.655 125.803C292.53 125.803 292.405 125.763 292.3 125.693C289.53 123.778 286.735 121.898 284 120.098C283.71 119.908 283.63 119.523 283.82 119.233C284.01 118.953 284.395 118.868 284.685 119.053C287.43 120.858 290.23 122.743 293.005 124.658C293.295 124.858 293.365 125.248 293.17 125.528C293.045 125.703 292.85 125.803 292.655 125.803ZM308.86 137.528C308.73 137.528 308.6 137.488 308.485 137.403C305.805 135.378 303.105 133.373 300.455 131.453C300.175 131.248 300.115 130.858 300.315 130.583C300.52 130.298 300.91 130.238 301.19 130.443C303.845 132.363 306.555 134.373 309.24 136.408C309.515 136.613 309.565 137.008 309.36 137.283C309.235 137.443 309.05 137.528 308.86 137.528ZM25.0149 138.023C24.9349 138.023 24.8549 138.008 24.7749 137.978C24.4549 137.843 24.3049 137.473 24.4399 137.158C25.7499 134.038 27.1749 130.968 28.6699 128.038C28.8249 127.728 29.1999 127.603 29.5099 127.763C29.8199 127.918 29.9399 128.298 29.7849 128.603C28.2999 131.513 26.8899 134.553 25.5899 137.643C25.4899 137.883 25.2599 138.023 25.0149 138.023ZM324.565 149.988C324.425 149.988 324.285 149.943 324.165 149.848C321.645 147.753 319.03 145.628 316.39 143.533C316.12 143.318 316.075 142.928 316.29 142.658C316.51 142.388 316.9 142.348 317.165 142.553C319.815 144.653 322.44 146.783 324.965 148.883C325.23 149.103 325.27 149.498 325.05 149.763C324.925 149.913 324.745 149.988 324.565 149.988ZM18.4799 156.938C18.4199 156.938 18.3649 156.933 18.3099 156.918C17.9799 156.823 17.7799 156.478 17.8749 156.143C18.7849 152.888 19.7849 149.658 20.8549 146.548C20.9699 146.223 21.3299 146.038 21.6499 146.158C21.9749 146.273 22.1499 146.628 22.0399 146.953C20.9749 150.043 19.9799 153.248 19.0799 156.483C19.0049 156.758 18.7499 156.938 18.4799 156.938ZM339.735 163.168C339.58 163.168 339.435 163.113 339.315 163.003C336.85 160.763 334.325 158.518 331.81 156.333C331.55 156.113 331.525 155.713 331.75 155.453C331.975 155.188 332.37 155.173 332.63 155.393C335.155 157.583 337.68 159.833 340.155 162.078C340.41 162.313 340.43 162.708 340.195 162.963C340.07 163.098 339.905 163.168 339.735 163.168ZM14.1699 176.493C14.1349 176.493 14.0999 176.488 14.0649 176.483C13.7249 176.428 13.4949 176.103 13.5549 175.763C14.1099 172.438 14.7499 169.123 15.4549 165.903C15.5299 165.568 15.8599 165.358 16.1999 165.423C16.5349 165.498 16.7499 165.833 16.6749 166.168C15.9749 169.368 15.3399 172.668 14.7849 175.968C14.7349 176.273 14.4699 176.493 14.1699 176.493ZM354.25 176.988C354.09 176.988 353.93 176.928 353.81 176.803C351.445 174.448 349.03 172.098 346.64 169.823C346.39 169.583 346.38 169.188 346.62 168.938C346.855 168.693 347.255 168.678 347.5 168.918C349.9 171.203 352.32 173.558 354.69 175.918C354.935 176.163 354.935 176.558 354.69 176.803C354.57 176.928 354.41 176.988 354.25 176.988ZM368.09 191.478C367.92 191.478 367.755 191.408 367.63 191.273C365.385 188.808 363.09 186.343 360.805 183.953C360.57 183.708 360.58 183.308 360.825 183.073C361.08 182.838 361.47 182.838 361.71 183.093C364.005 185.488 366.305 187.958 368.555 190.433C368.79 190.688 368.77 191.083 368.51 191.313C368.395 191.423 368.245 191.478 368.09 191.478ZM11.7549 196.368C11.7399 196.368 11.7249 196.368 11.7049 196.368C11.3599 196.338 11.1049 196.038 11.1299 195.698C11.3949 192.328 11.7299 188.963 12.1249 185.703C12.1649 185.363 12.4449 185.133 12.8199 185.158C13.1649 185.198 13.4049 185.508 13.3649 185.853C12.9749 189.098 12.6399 192.443 12.3749 195.793C12.3549 196.118 12.0799 196.368 11.7549 196.368ZM381.19 206.643C381.01 206.643 380.83 206.563 380.705 206.413C378.625 203.873 376.46 201.298 374.265 198.758C374.04 198.498 374.07 198.103 374.335 197.878C374.595 197.648 374.99 197.683 375.215 197.943C377.415 200.488 379.59 203.073 381.675 205.623C381.895 205.888 381.855 206.283 381.585 206.503C381.47 206.598 381.33 206.643 381.19 206.643ZM10.9449 216.383C10.5999 216.378 10.3199 216.098 10.3199 215.753C10.3349 212.398 10.4099 209.023 10.5399 205.718C10.5549 205.378 10.8199 205.093 11.1899 205.118C11.5349 205.133 11.8049 205.423 11.7899 205.768C11.6599 209.058 11.5849 212.418 11.5699 215.758C11.5699 216.103 11.2899 216.383 10.9449 216.383ZM393.445 222.498C393.25 222.498 393.06 222.413 392.94 222.243C390.975 219.548 388.955 216.853 386.935 214.243C386.725 213.968 386.775 213.578 387.05 213.363C387.32 213.153 387.71 213.198 387.925 213.478C389.955 216.098 391.98 218.803 393.95 221.508C394.15 221.788 394.09 222.178 393.815 222.378C393.7 222.463 393.57 222.498 393.445 222.498ZM11.5099 236.413C11.1799 236.413 10.9049 236.153 10.8849 235.823C10.6849 232.433 10.5349 229.053 10.4449 225.793C10.4349 225.448 10.7049 225.158 11.0499 225.148H11.0699C11.4049 225.148 11.6849 225.418 11.6949 225.758C11.7849 229.008 11.9349 232.368 12.1349 235.748C12.1549 236.093 11.8899 236.388 11.5449 236.413H11.5099ZM404.72 239.058C404.515 239.058 404.31 238.958 404.19 238.768C402.43 235.993 400.58 233.183 398.695 230.418C398.505 230.133 398.575 229.743 398.86 229.548C399.14 229.353 399.535 229.428 399.73 229.713C401.62 232.488 403.48 235.313 405.245 238.098C405.43 238.393 405.345 238.778 405.055 238.963C404.95 239.028 404.835 239.058 404.72 239.058ZM414.84 256.348C414.62 256.348 414.405 256.228 414.29 256.018C412.73 253.118 411.085 250.188 409.395 247.303C409.225 247.008 409.325 246.628 409.62 246.448C409.91 246.268 410.3 246.373 410.475 246.673C412.17 249.568 413.825 252.513 415.39 255.428C415.555 255.728 415.44 256.113 415.135 256.273C415.045 256.323 414.94 256.348 414.84 256.348ZM13.2749 256.373C12.9599 256.373 12.6899 256.138 12.6549 255.818C12.2599 252.453 11.9199 249.088 11.6299 245.838C11.5999 245.493 11.8549 245.188 12.1949 245.158C12.5999 245.123 12.8449 245.383 12.8749 245.723C13.1599 248.968 13.5049 252.318 13.8949 255.678C13.9349 256.018 13.6899 256.328 13.3449 256.368C13.3199 256.373 13.2999 256.373 13.2749 256.373ZM423.585 274.363C423.345 274.363 423.115 274.223 423.01 273.988C421.69 270.943 420.285 267.888 418.84 264.913C418.69 264.603 418.82 264.228 419.13 264.078C419.435 263.923 419.81 264.053 419.965 264.363C421.42 267.363 422.83 270.428 424.16 273.488C424.295 273.808 424.15 274.173 423.835 274.313C423.755 274.343 423.67 274.363 423.585 274.363ZM16.0899 276.213C15.7899 276.213 15.5249 275.993 15.4749 275.688C14.9099 272.343 14.3949 269.008 13.9399 265.773C13.8899 265.433 14.1299 265.113 14.4699 265.068C14.7899 265.013 15.1249 265.253 15.1749 265.598C15.6299 268.823 16.1449 272.148 16.7049 275.483C16.7649 275.823 16.5349 276.143 16.1949 276.203C16.1599 276.208 16.1249 276.213 16.0899 276.213ZM430.645 293.093C430.38 293.093 430.135 292.928 430.05 292.663C429.055 289.553 427.95 286.388 426.76 283.243C426.64 282.918 426.8 282.558 427.125 282.438C427.445 282.298 427.805 282.473 427.93 282.798C429.13 285.963 430.24 289.153 431.24 292.278C431.345 292.608 431.165 292.963 430.835 293.068C430.77 293.088 430.705 293.093 430.645 293.093ZM19.8649 295.888C19.5749 295.888 19.3199 295.688 19.2549 295.393C18.5549 292.153 17.8799 288.843 17.2549 285.563C17.1849 285.223 17.4099 284.898 17.7499 284.833C18.0799 284.743 18.4149 284.988 18.4799 285.328C19.1049 288.598 19.7749 291.898 20.4749 295.133C20.5499 295.468 20.3349 295.803 19.9949 295.873C19.9549 295.883 19.9099 295.888 19.8649 295.888ZM435.645 312.468C435.355 312.468 435.09 312.258 435.035 311.958C434.415 308.773 433.675 305.503 432.83 302.238C432.745 301.903 432.945 301.563 433.28 301.478C433.605 301.393 433.95 301.593 434.04 301.928C434.89 305.213 435.64 308.508 436.26 311.723C436.325 312.058 436.105 312.388 435.765 312.453C435.725 312.463 435.685 312.468 435.645 312.468ZM24.5199 315.373C24.2399 315.373 23.9899 315.183 23.9149 314.903C23.0699 311.673 22.2549 308.428 21.4799 305.178C21.3999 304.838 21.6049 304.503 21.9399 304.423C22.2699 304.343 22.6149 304.548 22.6949 304.883C23.4749 308.128 24.2799 311.363 25.1249 314.588C25.2099 314.923 25.0149 315.263 24.6799 315.353C24.6249 315.363 24.5699 315.373 24.5199 315.373ZM438.12 332.308C437.79 332.308 437.515 332.048 437.495 331.713C437.325 328.448 437.03 325.108 436.61 321.793C436.565 321.453 436.81 321.138 437.15 321.098C437.525 321.068 437.805 321.298 437.85 321.638C438.27 324.983 438.575 328.353 438.745 331.648C438.765 331.993 438.5 332.288 438.155 332.308H438.12ZM30.1449 335.108C29.8799 335.108 29.6349 334.938 29.5499 334.668L29.3999 334.183C28.4249 331.008 27.4649 327.773 26.5599 324.573C26.4649 324.243 26.6549 323.898 26.9899 323.803C27.3349 323.713 27.6699 323.903 27.7599 324.233C28.6699 327.423 29.6249 330.653 30.5999 333.823L30.7399 334.298C30.8449 334.628 30.6599 334.973 30.3299 335.078C30.2699 335.098 30.2049 335.108 30.1449 335.108ZM437.795 352.308C437.78 352.308 437.77 352.308 437.755 352.308C437.41 352.283 437.15 351.983 437.175 351.638C437.405 348.368 437.565 345.018 437.64 341.678C437.645 341.333 437.89 341.083 438.28 341.068C438.62 341.073 438.895 341.358 438.89 341.708C438.815 345.068 438.655 348.438 438.42 351.728C438.4 352.058 438.12 352.308 437.795 352.308ZM36.3399 354.148C36.0849 354.148 35.8399 353.988 35.7499 353.728C34.6699 350.573 33.6099 347.403 32.5749 344.223C32.4699 343.898 32.6499 343.543 32.9799 343.438C33.3099 343.333 33.6599 343.513 33.7649 343.838C34.7999 347.008 35.8549 350.173 36.9349 353.323C37.0449 353.648 36.8699 354.003 36.5449 354.118C36.4749 354.138 36.4099 354.148 36.3399 354.148ZM435.34 372.158C435.305 372.158 435.27 372.153 435.23 372.148C434.89 372.083 434.665 371.758 434.725 371.423C435.3 368.203 435.8 364.888 436.215 361.563C436.255 361.218 436.585 360.973 436.91 361.018C437.255 361.063 437.495 361.373 437.455 361.718C437.04 365.068 436.535 368.403 435.955 371.638C435.9 371.943 435.64 372.158 435.34 372.158ZM43.1149 372.968C42.8649 372.968 42.6249 372.812 42.5349 372.562C41.3549 369.448 40.1999 366.318 39.0649 363.178C38.9449 362.853 39.1149 362.493 39.4399 362.373C39.7699 362.263 40.1199 362.428 40.2399 362.753C41.3699 365.888 42.5249 369.013 43.6999 372.118C43.8199 372.443 43.6599 372.803 43.3399 372.923C43.2649 372.953 43.1899 372.968 43.1149 372.968ZM50.5149 391.588C50.2699 391.588 50.0399 391.443 49.9399 391.203C48.6549 388.128 47.3999 385.033 46.1599 381.913C46.0299 381.593 46.1899 381.228 46.5099 381.103C46.8199 380.978 47.1899 381.128 47.3199 381.448C48.5549 384.563 49.8149 387.653 51.0899 390.723C51.2249 391.043 51.0749 391.408 50.7549 391.538C50.6749 391.573 50.5949 391.588 50.5149 391.588ZM430.695 391.603C430.64 391.603 430.58 391.598 430.515 391.578C430.185 391.478 430 391.128 430.1 390.798C431.05 387.638 431.925 384.398 432.69 381.178C432.775 380.843 433.095 380.638 433.445 380.713C433.78 380.798 433.99 381.133 433.91 381.468C433.135 384.713 432.255 387.973 431.295 391.158C431.215 391.428 430.965 391.603 430.695 391.603ZM58.5349 409.953C58.2999 409.953 58.0749 409.818 57.9699 409.588C56.5849 406.563 55.2149 403.508 53.8699 400.433C53.7349 400.118 53.8799 399.748 54.1949 399.608C54.5099 399.478 54.8799 399.613 55.0199 399.933C56.3599 403.003 57.7199 406.048 59.1049 409.068C59.2499 409.383 59.1099 409.753 58.7999 409.898C58.7149 409.938 58.6249 409.953 58.5349 409.953ZM423.785 410.368C423.7 410.368 423.615 410.353 423.53 410.313C423.215 410.178 423.075 409.808 423.21 409.493C424.54 406.473 425.79 403.363 426.94 400.248C427.06 399.928 427.415 399.758 427.745 399.878C428.065 399.998 428.23 400.358 428.11 400.683C426.955 403.823 425.69 406.953 424.355 409.993C424.25 410.228 424.025 410.368 423.785 410.368ZM67.2199 428.008C66.9899 428.008 66.7699 427.883 66.6599 427.668C65.1649 424.698 63.6849 421.698 62.2249 418.668C62.0749 418.358 62.2049 417.983 62.5199 417.833C62.8399 417.688 63.2049 417.813 63.3549 418.123C64.8099 421.143 66.2799 424.138 67.7749 427.103C67.9299 427.413 67.8099 427.788 67.4999 427.943C67.4099 427.988 67.3149 428.008 67.2199 428.008ZM414.645 428.168C414.535 428.168 414.425 428.143 414.325 428.083C414.025 427.903 413.93 427.523 414.105 427.228C415.8 424.363 417.425 421.423 418.93 418.483C419.09 418.173 419.46 418.053 419.77 418.213C420.08 418.373 420.2 418.748 420.045 419.053C418.525 422.013 416.89 424.978 415.18 427.863C415.065 428.058 414.855 428.168 414.645 428.168ZM403.485 444.768C403.355 444.768 403.22 444.728 403.105 444.643C402.835 444.438 402.78 444.043 402.985 443.768C404.99 441.118 406.94 438.393 408.78 435.658C408.975 435.373 409.36 435.293 409.65 435.488C409.935 435.683 410.01 436.073 409.815 436.358C407.965 439.113 406.005 441.858 403.985 444.523C403.86 444.683 403.675 444.768 403.485 444.768ZM76.6049 445.713C76.3849 445.713 76.1749 445.598 76.06 445.393C74.465 442.533 72.8549 439.568 71.2699 436.578C71.1099 436.273 71.2199 435.893 71.5249 435.733C71.8349 435.583 72.2099 435.688 72.3699 435.993C73.9549 438.973 75.56 441.933 77.1499 444.783C77.3199 445.083 77.2099 445.468 76.91 445.633C76.8149 445.688 76.7099 445.713 76.6049 445.713ZM390.595 460.058C390.445 460.058 390.29 460.003 390.17 459.888C389.92 459.658 389.905 459.258 390.14 459.008C392.42 456.563 394.65 454.048 396.765 451.543C396.99 451.288 397.385 451.248 397.645 451.468C397.91 451.693 397.945 452.088 397.72 452.353C395.59 454.873 393.35 457.398 391.055 459.863C390.93 459.993 390.765 460.058 390.595 460.058ZM86.7549 462.988C86.5499 462.988 86.3449 462.883 86.2249 462.693C84.4899 459.888 82.7449 456.998 81.0399 454.103C80.8699 453.803 80.9649 453.418 81.2649 453.243C81.5599 453.068 81.9449 453.173 82.1199 453.468C83.8199 456.358 85.5549 459.238 87.2899 462.033C87.4699 462.328 87.3799 462.713 87.0849 462.893C86.9849 462.958 86.8699 462.988 86.7549 462.988ZM376.29 474.053C376.115 474.053 375.945 473.983 375.82 473.843C375.59 473.588 375.615 473.193 375.87 472.963C378.38 470.713 380.83 468.423 383.165 466.143C383.41 465.903 383.81 465.913 384.045 466.153C384.29 466.403 384.285 466.798 384.035 467.038C381.69 469.328 379.225 471.633 376.705 473.893C376.585 473.998 376.435 474.053 376.29 474.053ZM97.755 479.738C97.5549 479.738 97.3599 479.643 97.2399 479.468C95.3499 476.753 93.4599 473.953 91.6249 471.148C91.4299 470.863 91.5149 470.473 91.8049 470.283C92.09 470.098 92.4749 470.178 92.6699 470.468C94.4999 473.263 96.3849 476.048 98.2649 478.753C98.465 479.038 98.395 479.428 98.1099 479.623C97.9999 479.698 97.88 479.738 97.755 479.738ZM360.86 486.818C360.67 486.818 360.485 486.733 360.365 486.573C360.155 486.298 360.205 485.908 360.48 485.698C363.135 483.658 365.77 481.568 368.3 479.478C368.565 479.253 368.955 479.293 369.175 479.558C369.395 479.828 369.36 480.218 369.095 480.438C366.55 482.543 363.91 484.643 361.24 486.688C361.125 486.778 360.99 486.818 360.86 486.818ZM109.69 495.823C109.51 495.823 109.325 495.743 109.2 495.588C107.18 493.033 105.125 490.353 103.09 487.618C102.885 487.343 102.945 486.948 103.22 486.743C103.5 486.543 103.89 486.598 104.1 486.873C106.12 489.598 108.165 492.268 110.18 494.808C110.395 495.078 110.35 495.473 110.08 495.688C109.965 495.778 109.83 495.823 109.69 495.823ZM344.575 498.473C344.375 498.473 344.18 498.373 344.055 498.193C343.865 497.908 343.94 497.518 344.23 497.328C347.01 495.463 349.775 493.548 352.45 491.638C352.725 491.433 353.12 491.503 353.32 491.783C353.52 492.063 353.46 492.458 353.18 492.658C350.495 494.573 347.72 496.493 344.925 498.368C344.82 498.438 344.695 498.473 344.575 498.473ZM327.64 509.163C327.425 509.163 327.22 509.053 327.1 508.858C326.925 508.563 327.02 508.178 327.32 507.998C330.23 506.263 333.1 504.508 335.845 502.773C336.14 502.598 336.525 502.678 336.71 502.968C336.89 503.263 336.805 503.648 336.515 503.833C333.755 505.568 330.88 507.333 327.96 509.073C327.86 509.133 327.75 509.163 327.64 509.163ZM122.7 511.053C122.535 511.053 122.365 510.983 122.245 510.853C120.02 508.448 117.775 505.918 115.575 503.343C115.355 503.083 115.38 502.683 115.645 502.463C115.91 502.243 116.305 502.268 116.525 502.533C118.715 505.098 120.95 507.608 123.16 510.003C123.395 510.258 123.38 510.653 123.125 510.888C123.005 510.998 122.855 511.053 122.7 511.053ZM310.205 519.033C309.98 519.033 309.765 518.913 309.655 518.708C309.49 518.403 309.605 518.023 309.905 517.858C312.855 516.268 315.775 514.658 318.665 513.023C318.965 512.853 319.345 512.958 319.52 513.258C319.685 513.558 319.58 513.938 319.28 514.113C316.385 515.748 313.455 517.363 310.5 518.958C310.405 519.008 310.305 519.033 310.205 519.033ZM136.94 525.133C136.79 525.133 136.64 525.078 136.525 524.973C134.07 522.773 131.61 520.453 129.22 518.078C128.97 517.833 128.97 517.438 129.215 517.193C129.455 516.948 129.85 516.948 130.095 517.188C132.475 519.553 134.92 521.853 137.36 524.043C137.615 524.273 137.635 524.668 137.405 524.928C137.28 525.063 137.11 525.133 136.94 525.133ZM292.405 528.218C292.175 528.218 291.95 528.093 291.845 527.873C291.69 527.563 291.82 527.183 292.125 527.033C295.125 525.543 298.105 524.043 301.06 522.518C301.36 522.363 301.735 522.483 301.9 522.788C302.055 523.093 301.94 523.473 301.63 523.633C298.67 525.158 295.69 526.663 292.68 528.153C292.59 528.198 292.495 528.218 292.405 528.218ZM274.32 536.853C274.085 536.853 273.86 536.718 273.755 536.488C273.61 536.178 273.745 535.803 274.06 535.663C277.095 534.258 280.12 532.838 283.12 531.408C283.425 531.268 283.81 531.393 283.955 531.703C284.105 532.013 283.97 532.388 283.66 532.538C280.65 533.973 277.625 535.388 274.58 536.793C274.5 536.833 274.41 536.853 274.32 536.853ZM152.575 537.628C152.455 537.628 152.33 537.588 152.22 537.513C149.545 535.633 146.84 533.603 144.185 531.473C143.915 531.258 143.87 530.863 144.085 530.593C144.31 530.328 144.7 530.283 144.965 530.498C147.6 532.608 150.28 534.628 152.935 536.488C153.22 536.688 153.29 537.078 153.09 537.363C152.97 537.533 152.775 537.628 152.575 537.628ZM256.08 545.028C255.84 545.028 255.61 544.888 255.505 544.653C255.37 544.338 255.515 543.968 255.83 543.828C258.89 542.493 261.94 541.148 264.97 539.788C265.285 539.648 265.655 539.788 265.795 540.103C265.935 540.418 265.795 540.788 265.485 540.928C262.445 542.288 259.395 543.638 256.33 544.973C256.25 545.008 256.165 545.028 256.08 545.028ZM169.755 547.873C169.66 547.873 169.565 547.853 169.475 547.808C166.54 546.363 163.57 544.748 160.645 542.993C160.35 542.818 160.255 542.433 160.43 542.138C160.605 541.843 160.99 541.743 161.29 541.923C164.185 543.653 167.125 545.258 170.03 546.688C170.34 546.843 170.465 547.213 170.315 547.523C170.205 547.748 169.98 547.873 169.755 547.873ZM237.615 552.783C237.36 552.783 237.12 552.623 237.03 552.368C236.91 552.043 237.08 551.683 237.405 551.568C238.855 551.043 240.34 550.463 241.82 549.838C243.425 549.158 245.035 548.478 246.64 547.793C246.955 547.663 247.325 547.803 247.46 548.118C247.595 548.438 247.45 548.808 247.135 548.938C245.525 549.628 243.915 550.313 242.305 550.993C240.805 551.623 239.3 552.213 237.83 552.743C237.76 552.768 237.685 552.783 237.615 552.783ZM188.43 554.938C188.38 554.938 188.325 554.928 188.275 554.918C185.1 554.078 181.88 553.038 178.7 551.828C178.375 551.708 178.21 551.343 178.335 551.023C178.46 550.698 178.82 550.538 179.14 550.663C182.285 551.853 185.465 552.883 188.59 553.708C188.925 553.798 189.125 554.138 189.035 554.468C188.96 554.753 188.71 554.938 188.43 554.938ZM218.16 557.318C217.84 557.318 217.57 557.078 217.535 556.758C217.5 556.413 217.75 556.108 218.09 556.068C221.355 555.723 224.65 555.163 227.88 554.403C228.23 554.318 228.555 554.538 228.63 554.868C228.715 555.203 228.505 555.543 228.17 555.618C224.885 556.393 221.54 556.958 218.225 557.313C218.2 557.318 218.18 557.318 218.16 557.318ZM208.16 557.748H208.15C204.835 557.683 201.465 557.403 198.125 556.923C197.785 556.873 197.55 556.558 197.6 556.218C197.645 555.873 197.93 555.628 198.305 555.688C201.59 556.163 204.91 556.433 208.175 556.498C208.515 556.508 208.795 556.793 208.785 557.138C208.78 557.478 208.5 557.748 208.16 557.748Z" fill="#D8D5DB"/>
<mask id="mask1" style="mask-type:alpha" maskUnits="userSpaceOnUse" x="50" y="82" width="365" height="492">
<path fill-rule="evenodd" clip-rule="evenodd" d="M50.75 82.1295H414.438V573.31H50.75V82.1295Z" fill="white"/>
</mask>
<g mask="url(#mask1)">
<path fill-rule="evenodd" clip-rule="evenodd" d="M389.55 494.68C386.75 495.43 383.95 496.88 381.7 499.43C380.4 500.93 378.7 503.73 377.2 506.68C376.85 496.58 376.5 487.98 376.15 482.68C377.1 482.58 377.65 482.58 377.65 482.58C377.65 481.38 377.65 480.18 377.6 478.88C377.35 454.53 374.7 412.18 371.2 369.98C372.45 372.58 373.65 374.98 374.8 377.13C374.85 377.88 374.85 378.63 375 379.43C376.85 389.53 386.1 445.43 388.8 479.13C389.3 485.18 389.55 490.48 389.55 494.68ZM411.8 371.48V371.38C408.9 361.93 399.15 333.78 388.05 305.83L400.35 301.63C400.35 301.63 364.35 237.58 343.3 223.48C343.25 223.43 343.2 223.43 343.15 223.38C335.75 216.48 324.95 211.98 308.8 210.13C308.7 196.78 309.7 174.28 310.85 157.03C319.15 155.13 323.15 145.38 323.7 143.23C324.85 138.83 323.8 135.18 321.65 132.83C322.3 127.38 323.4 116.78 323.1 107.68C322.85 99.3295 321.5 92.2795 317.6 91.4295C317.65 91.2795 317.75 91.1795 317.8 91.0795C319.1 86.9295 316.65 82.3295 316.55 82.1295L314.35 83.3295C314.95 84.3795 316.2 87.6795 315.4 90.2795C311.7 86.1795 300.2 84.5295 287.3 84.7795C269.25 85.0795 248.55 89.2295 242.95 95.7295C239.05 100.23 240.2 102.68 244.25 103.78C243.65 107.98 243.4 111.63 243.3 114.98C242.7 116.53 242.15 118.13 241.6 119.83C240.15 120.83 238.75 122.28 237.7 124.53L240 125.58C240.05 125.48 240.1 125.43 240.15 125.33C239.55 127.88 239 130.48 238.6 133.33C234.1 164.33 226.75 195.18 257.5 195.53C257.45 199.03 257.25 202.43 256.9 205.63C256.65 208.18 256.3 210.58 255.85 212.73C244.15 215.58 235 220.08 228.65 226.13C206.05 244.78 177.5 304.68 177.5 304.68L187.1 309.43C180 323.23 173 337.33 167.75 348.78C143.45 331.98 100.75 300.83 88.15 287.18C88.15 287.13 88.1 287.13 88.05 287.08C88.55 281.83 87.6 273.33 86.2 268.53C86.2 268.43 86.2 268.33 86.15 268.18C86.05 267.93 85.95 267.78 85.9 267.58C85.8 267.28 85.7 266.93 85.6 266.68C85.35 266.03 85.15 265.58 84.95 265.18C81.6 257.78 76.3 254.88 73.15 245.03C71.5 239.78 67.45 241.93 65.9 245.43L54 218.83L50.75 220.28L66.05 254.63C62.45 253.03 59.3 252.08 57.15 252.83C54.2 253.83 50.95 268.68 52.35 273.98C53.75 279.23 68.1 296.13 73.45 299.03C73.85 299.23 74.3 299.38 74.7 299.43C83.35 311.53 140.7 379.63 163.75 391.43C178.05 398.68 188.8 392.43 192.35 383.13C196.95 375.73 205.4 361.28 214.6 344.58C211.6 391.08 205.85 443.48 195 480.23C196 480.38 197.05 480.53 198.1 480.68C195.05 495.93 192.8 515.98 191.2 536.33C202.5 541.13 214 545.48 225.6 549.38C277.35 566.88 331.05 575.63 377.75 572.78C378.5 570.48 378.85 568.079 378.8 565.53C378.55 555.53 378.25 543.28 377.95 531.18C380.45 537.68 383.7 543.03 386.3 544.38C389.05 545.78 402.05 537.83 404.9 533.08C407.7 528.48 409.85 506.38 408.2 500.48C408.1 500.08 407.8 499.78 407.6 499.43C408.2 496.13 409.1 488.93 410.1 479.53C413.3 447.829 417.1 390.88 411.8 371.48Z" fill="#D1CDD3"/>
</g>
<path fill-rule="evenodd" clip-rule="evenodd" d="M284.106 275.571L251.511 254.301C251.511 254.301 219.116 313.916 203.141 348.796C178.856 331.981 136.156 300.846 123.551 287.166C123.516 287.131 123.481 287.111 123.446 287.076C123.941 281.816 122.991 273.341 121.606 268.536C121.576 268.411 121.571 268.311 121.526 268.176C121.456 267.951 121.361 267.771 121.286 267.556C121.186 267.276 121.096 266.921 120.996 266.681C120.731 266.036 120.526 265.566 120.341 265.161C116.991 257.806 111.681 254.866 108.551 245.046C106.371 238.191 100.086 243.941 100.706 248.886C100.706 248.886 101.641 252.096 102.696 255.186C98.541 253.206 94.951 252.006 92.531 252.821C89.601 253.806 86.326 268.676 87.731 273.991C89.111 279.221 103.481 296.131 108.861 299.041C109.251 299.251 109.661 299.366 110.081 299.431C118.756 311.546 176.106 379.651 199.161 391.411C213.441 398.696 224.166 392.421 227.751 383.141C238.651 365.446 271.636 307.856 284.106 275.571Z" fill="#FFAD69"/>
<path fill-rule="evenodd" clip-rule="evenodd" d="M288.542 238.945C293.482 263.795 273.622 334.51 273.622 334.51L212.872 304.695C212.872 304.695 275.512 173.39 288.542 238.945Z" fill="#EA3939"/>
<path fill-rule="evenodd" clip-rule="evenodd" d="M414.201 565.529C414.201 566.329 414.201 567.129 414.101 567.929C402.651 570.429 390.451 572.079 377.751 572.779C331.051 575.629 277.351 566.879 225.601 549.379C227.401 522.679 230.201 494.829 234.501 476.029L377.601 478.879L388.801 479.129L410.101 479.529L411.351 479.579C412.351 490.979 413.551 537.129 414.201 565.529Z" fill="#232323"/>
<path fill-rule="evenodd" clip-rule="evenodd" d="M332.468 209.297C371.738 210.592 385.013 223.847 391.783 246.772C399.468 272.802 413.008 430.022 413.008 482.557C413.008 482.557 295.488 490.882 230.383 480.212C250.793 411.262 253.003 287.277 253.413 250.342C253.718 222.627 282.683 207.652 332.468 209.297Z" fill="#FF4E4A"/>
<path fill-rule="evenodd" clip-rule="evenodd" d="M297.873 145.007C294.003 142.097 273.823 144.737 279.638 103.652C281.753 88.662 295.833 98.667 305.798 100.667C315.763 102.667 309.428 145.747 309.428 145.747L297.873 145.007Z" fill="#232323"/>
<path fill-rule="evenodd" clip-rule="evenodd" d="M348.117 135.166C346.442 146.056 343.092 204.976 344.487 218.656C345.882 232.341 279.702 236.251 288.357 221.171C297.017 206.091 290.872 156.106 290.872 156.106L348.117 135.166Z" fill="#FFAD69"/>
<path fill-rule="evenodd" clip-rule="evenodd" d="M343.535 136.831L290.88 156.111C290.88 156.111 294.435 185.226 292.29 205.721C332.44 202.616 342.745 151.906 343.425 142.141C343.535 140.301 343.59 138.526 343.535 136.831Z" fill="#D88344"/>
<path fill-rule="evenodd" clip-rule="evenodd" d="M273.974 133.313C269.094 166.948 260.809 200.483 301.579 194.963C342.354 189.443 348.689 137.168 348.569 127.308C347.934 74.6925 283.569 67.1725 273.974 133.313Z" fill="#FFAD69"/>
<path fill-rule="evenodd" clip-rule="evenodd" d="M352.965 91.4105C353.015 91.2805 353.125 91.1905 353.17 91.0605C354.495 86.9355 352.055 82.3405 351.95 82.1455L349.75 83.3305C349.77 83.3705 351.77 87.1755 350.79 90.2705C341.86 80.4055 287.915 84.6105 278.32 95.7555C266.13 109.916 303.62 103.531 324.745 99.9555C327.705 112.326 341.115 132.811 344.98 135.721L356.535 136.466C356.535 136.466 362.84 93.5805 352.965 91.4105Z" fill="#232323"/>
<path fill-rule="evenodd" clip-rule="evenodd" d="M442.988 499.414C445.578 485.024 454.108 396.629 447.203 371.499C447.193 371.459 447.198 371.419 447.188 371.374C442.368 355.644 418.433 287.839 401.103 255.734L363.758 266.694C363.758 266.694 395.013 348.264 410.168 377.114C410.213 377.889 410.213 378.649 410.363 379.449C412.593 391.349 425.053 466.854 424.913 494.664C422.153 495.434 419.343 496.884 417.108 499.434C414.263 502.684 409.303 512.018 409.653 516.159C410.648 527.974 417.213 542.049 421.708 544.374C424.458 545.794 437.418 537.809 440.263 533.104C443.063 528.474 445.223 506.389 443.573 500.499C443.463 500.094 443.193 499.769 442.988 499.414Z" fill="#FFAD69"/>
<path fill-rule="evenodd" clip-rule="evenodd" d="M378.689 223.486C399.754 237.566 435.714 301.611 435.714 301.611L371.679 323.486C371.679 323.486 323.119 186.346 378.689 223.486Z" fill="#FF4E4A"/>
<path fill-rule="evenodd" clip-rule="evenodd" d="M308.308 131.647C308.438 133.287 307.553 134.692 306.323 134.792C305.093 134.887 303.993 133.642 303.863 132.002C303.728 130.367 304.618 128.957 305.848 128.862C307.073 128.762 308.173 130.007 308.308 131.647Z" fill="#232323"/>
<path fill-rule="evenodd" clip-rule="evenodd" d="M282.336 132.336C282.466 133.976 281.581 135.381 280.351 135.481C279.126 135.576 278.021 134.331 277.891 132.696C277.756 131.056 278.646 129.646 279.876 129.551C281.101 129.451 282.206 130.696 282.336 132.336Z" fill="#232323"/>
<path fill-rule="evenodd" clip-rule="evenodd" d="M314.694 122.446C311.219 117.111 305.239 118.381 305.179 118.391L304.629 115.951C304.944 115.886 312.374 114.311 316.789 121.081L314.694 122.446Z" fill="#232323"/>
<path fill-rule="evenodd" clip-rule="evenodd" d="M275.38 125.561L273.11 124.521C276.48 117.166 284.055 117.641 284.375 117.656L284.2 120.151C283.965 120.136 278.02 119.821 275.38 125.561Z" fill="#232323"/>
<path fill-rule="evenodd" clip-rule="evenodd" d="M299.96 162.617C298.3 162.617 297.25 162.432 297.21 162.422L297.665 159.967C298.125 160.052 309.1 161.912 315.215 151.737L317.355 153.027C312.31 161.417 304.185 162.617 299.96 162.617Z" fill="#232323"/>
<path fill-rule="evenodd" clip-rule="evenodd" d="M280.739 151.222L287.099 129.542L289.494 130.242L284.089 148.677L292.844 148.562L292.879 151.062L280.739 151.222Z" fill="#D88344"/>
<path fill-rule="evenodd" clip-rule="evenodd" d="M118.761 284.682L115.491 286.142L86.1415 220.287L89.4065 218.827L118.761 284.682Z" fill="#232323"/>
<path fill-rule="evenodd" clip-rule="evenodd" d="M338.23 139.446C334.545 147.746 329.935 155.776 341.5 157.266C353.065 158.761 358.444 145.776 359.1 143.231C362.595 129.661 345.47 123.126 338.23 139.446Z" fill="#FFAD69"/>
<path fill-rule="evenodd" clip-rule="evenodd" d="M165.226 0.00201416H47.5715C43.4715 0.00201416 40.1465 3.32201 40.1465 7.42201V49.317C40.1465 53.417 43.4715 56.742 47.5715 56.742H54.7365L62.8165 67.537C64.6115 69.937 68.3765 69.222 69.1715 66.332L71.7915 56.742H165.226C169.326 56.742 172.646 53.417 172.646 49.317V7.42201C172.646 3.32201 169.326 0.00201416 165.226 0.00201416Z" fill="#4D8DFF"/>
<mask id="mask2" style="mask-type:alpha" maskUnits="userSpaceOnUse" x="4" y="0" width="520" height="574">
<path fill-rule="evenodd" clip-rule="evenodd" d="M4 573.31H523.785V0H4V573.31Z" fill="white"/>
</mask>
<g mask="url(#mask2)">
<path fill-rule="evenodd" clip-rule="evenodd" d="M51.705 13.495H155.73V10.995H51.705V13.495Z" fill="white"/>
<path fill-rule="evenodd" clip-rule="evenodd" d="M51.705 25.325H120.395V22.825H51.705V25.325Z" fill="white"/>
<path fill-rule="evenodd" clip-rule="evenodd" d="M51.705 37.155H137.565V34.655H51.705V37.155Z" fill="white"/>
<path fill-rule="evenodd" clip-rule="evenodd" d="M137.566 140.193H47.5705C43.4705 140.193 40.1505 143.518 40.1505 147.613V189.508C40.1505 193.608 43.4705 196.933 47.5705 196.933H54.7355L62.8155 207.728C64.6105 210.128 68.3805 209.413 69.1705 206.523L71.7905 196.933H137.566C141.666 196.933 144.986 193.608 144.986 189.508V147.613C144.986 143.518 141.666 140.193 137.566 140.193Z" fill="#FF4E4A"/>
<path fill-rule="evenodd" clip-rule="evenodd" d="M51.705 153.685H99.59V151.185H51.705V153.685Z" fill="white"/>
<path fill-rule="evenodd" clip-rule="evenodd" d="M109.5 153.685H126.01V151.185H109.5V153.685Z" fill="white"/>
<path fill-rule="evenodd" clip-rule="evenodd" d="M51.705 165.515H85.72V163.015H51.705V165.515Z" fill="white"/>
<path fill-rule="evenodd" clip-rule="evenodd" d="M51.705 177.345H117.42V174.845H51.705V177.345Z" fill="white"/>
<path fill-rule="evenodd" clip-rule="evenodd" d="M107.429 70.058H216.999C221.094 70.058 224.414 73.383 224.414 77.478V119.378C224.414 123.473 221.094 126.798 216.999 126.798H209.829L201.749 137.598C199.954 139.993 196.184 139.278 195.399 136.388L192.774 126.798H107.429C103.329 126.798 100.009 123.473 100.009 119.378V77.478C100.009 73.383 103.329 70.058 107.429 70.058Z" fill="#FFC84D"/>
<path fill-rule="evenodd" clip-rule="evenodd" d="M168.94 83.55H212.86V81.05H168.94V83.55Z" fill="white"/>
<path fill-rule="evenodd" clip-rule="evenodd" d="M117.425 95.385H212.86V92.885H117.425V95.385Z" fill="white"/>
<path fill-rule="evenodd" clip-rule="evenodd" d="M165.97 107.215H212.86V104.715H165.97V107.215Z" fill="white"/>
<path fill-rule="evenodd" clip-rule="evenodd" d="M136.575 107.215H158.04V104.715H136.575V107.215Z" fill="white"/>
<path fill-rule="evenodd" clip-rule="evenodd" d="M297.439 276.82C278.324 276.82 262.769 292.375 262.769 311.49C262.769 330.61 278.324 346.165 297.439 346.165C316.559 346.165 332.114 330.61 332.114 311.49C332.114 292.375 316.559 276.82 297.439 276.82ZM297.439 348.665C276.944 348.665 260.269 331.99 260.269 311.49C260.269 290.995 276.944 274.32 297.439 274.32C317.939 274.32 334.614 290.995 334.614 311.49C334.614 331.99 317.939 348.665 297.439 348.665Z" fill="white"/>
</g>
</g>
<defs>
<filter id="filter0_ddd" x="0.0012207" y="0.00201416" width="527.784" height="581.308" filterUnits="userSpaceOnUse" color-interpolation-filters="sRGB">
<feFlood flood-opacity="0" result="BackgroundImageFix"/>
<feColorMatrix in="SourceAlpha" type="matrix" values="0 0 0 0 0 0 0 0 0 0 0 0 0 0 0 0 0 0 127 0" result="hardAlpha"/>
<feOffset dy="4"/>
<feGaussianBlur stdDeviation="2"/>
<feComposite in2="hardAlpha" operator="out"/>
<feColorMatrix type="matrix" values="0 0 0 0 0 0 0 0 0 0 0 0 0 0 0 0 0 0 0.25 0"/>
<feBlend mode="normal" in2="BackgroundImageFix" result="effect1_dropShadow"/>
<feColorMatrix in="SourceAlpha" type="matrix" values="0 0 0 0 0 0 0 0 0 0 0 0 0 0 0 0 0 0 127 0" result="hardAlpha"/>
<feOffset dy="4"/>
<feGaussianBlur stdDeviation="2"/>
<feComposite in2="hardAlpha" operator="out"/>
<feColorMatrix type="matrix" values="0 0 0 0 0 0 0 0 0 0 0 0 0 0 0 0 0 0 0.25 0"/>
<feBlend mode="normal" in2="effect1_dropShadow" result="effect2_dropShadow"/>
<feColorMatrix in="SourceAlpha" type="matrix" values="0 0 0 0 0 0 0 0 0 0 0 0 0 0 0 0 0 0 127 0" result="hardAlpha"/>
<feOffset dy="4"/>
<feGaussianBlur stdDeviation="2"/>
<feComposite in2="hardAlpha" operator="out"/>
<feColorMatrix type="matrix" values="0 0 0 0 0 0 0 0 0 0 0 0 0 0 0 0 0 0 0.25 0"/>
<feBlend mode="normal" in2="effect2_dropShadow" result="effect3_dropShadow"/>
<feBlend mode="normal" in="SourceGraphic" in2="effect3_dropShadow" result="shape"/>
</filter>
</defs>
</svg>
