<svg version="1.2" baseProfile="tiny-ps" xmlns="http://www.w3.org/2000/svg" viewBox="0 0 18 14" width="18" height="14">
	<title>Home</title>
	<style>
		tspan { white-space:pre }
		.shp0 { fill: #000000 } 
	</style>
	<g id="Home">
		<g id="Footer">
			<g id="Social">
				<g id="twitter-logo-silhouette">
					<path id="Path" class="shp0" d="M18 1.66C17.34 1.94 16.63 2.13 15.88 2.21C16.64 1.78 17.23 1.08 17.5 0.26C16.79 0.66 16 0.96 15.16 1.12C14.48 0.43 13.52 0 12.46 0C10.42 0 8.77 1.58 8.77 3.53C8.77 3.81 8.8 4.08 8.86 4.34C5.8 4.19 3.07 2.78 1.25 0.65C0.94 1.17 0.75 1.77 0.75 2.42C0.75 3.65 1.41 4.73 2.4 5.36C1.79 5.34 1.22 5.19 0.72 4.92L0.72 4.96C0.72 6.68 2 8.11 3.69 8.43C3.38 8.51 3.05 8.55 2.71 8.55C2.47 8.55 2.24 8.53 2.02 8.49C2.49 9.89 3.85 10.92 5.47 10.94C4.2 11.89 2.61 12.45 0.88 12.45C0.58 12.45 0.29 12.44 0 12.41C1.63 13.41 3.57 14 5.66 14C12.45 14 16.17 8.61 16.17 3.94L16.15 3.48C16.88 2.99 17.51 2.36 18 1.66Z" />
				</g>
			</g>
		</g>
	</g>
</svg>