<svg version="1.2" baseProfile="tiny-ps" xmlns="http://www.w3.org/2000/svg" viewBox="0 0 15 15" width="15" height="15">
	<title>Home</title>
	<style>
		tspan { white-space:pre }
		.shp0 { fill: #000000 } 
	</style>
	<g id="Home">
		<g id="Footer">
			<g id="Social">
				<g id="dribbble-logo">
					<path id="Shape" fill-rule="evenodd" class="shp0" d="M14.98 7.49C14.98 8.85 14.65 10.1 13.98 11.25C13.31 12.4 12.4 13.31 11.25 13.98C10.1 14.65 8.85 14.98 7.49 14.98C6.13 14.98 4.88 14.65 3.73 13.98C2.58 13.31 1.67 12.4 1 11.25C0.33 10.1 0 8.85 0 7.49C0 6.13 0.33 4.88 1 3.73C1.67 2.58 2.58 1.67 3.73 1C4.88 0.33 6.13 0 7.49 0C8.85 0 10.1 0.33 11.25 1C12.4 1.67 13.31 2.58 13.98 3.73C14.65 4.88 14.98 6.13 14.98 7.49ZM5.98 1.28C6.83 2.38 7.63 3.63 8.38 5C8.83 4.84 9.25 4.64 9.65 4.41C10.04 4.19 10.36 3.99 10.59 3.81C10.82 3.64 11.03 3.45 11.23 3.26C11.42 3.06 11.55 2.93 11.59 2.86L11.72 2.69C10.51 1.63 9.1 1.09 7.49 1.09C7 1.09 6.49 1.15 5.98 1.28ZM1.23 6.17C3.19 6.17 5.16 5.91 7.14 5.39C6.36 4.01 5.57 2.78 4.76 1.71C3.86 2.13 3.1 2.73 2.48 3.52C1.85 4.31 1.44 5.19 1.23 6.17ZM2.73 11.76C3.06 11.19 3.46 10.64 3.94 10.14C4.41 9.64 4.88 9.23 5.33 8.93C5.77 8.62 6.2 8.36 6.6 8.14C7 7.91 7.32 7.76 7.57 7.67L7.93 7.54C7.96 7.53 8 7.52 8.06 7.51C8.12 7.49 8.16 7.48 8.18 7.46C8.05 7.14 7.88 6.78 7.67 6.38C5.65 6.98 3.46 7.29 1.1 7.29C1.1 7.33 1.09 7.4 1.09 7.49C1.09 8.3 1.24 9.07 1.52 9.8C1.81 10.53 2.21 11.19 2.73 11.76ZM9.99 13.38C9.72 11.82 9.26 10.2 8.62 8.53L8.6 8.53L8.58 8.54C8.48 8.57 8.34 8.63 8.17 8.7C7.99 8.76 7.66 8.92 7.18 9.17C6.7 9.43 6.25 9.69 5.84 9.97C5.43 10.26 5.01 10.63 4.57 11.09C4.12 11.55 3.79 12.03 3.56 12.54L3.41 12.43C4.61 13.4 5.97 13.89 7.49 13.89C8.35 13.89 9.18 13.72 9.99 13.38ZM13.81 8.51C12.45 8.12 11.12 8.02 9.82 8.22C10.39 9.78 10.81 11.3 11.07 12.8C11.79 12.31 12.4 11.7 12.88 10.95C13.36 10.21 13.67 9.39 13.81 8.51ZM13.89 7.42C13.87 5.91 13.39 4.58 12.44 3.42L12.43 3.43C12.37 3.51 12.31 3.59 12.24 3.67C12.18 3.75 12.04 3.9 11.82 4.11C11.6 4.31 11.37 4.51 11.13 4.7C10.88 4.88 10.56 5.09 10.15 5.33C9.74 5.57 9.32 5.78 8.87 5.96C9.03 6.31 9.17 6.61 9.3 6.89C9.31 6.93 9.33 6.98 9.36 7.06C9.39 7.13 9.41 7.19 9.43 7.22C9.67 7.19 9.91 7.16 10.16 7.15C10.41 7.14 10.65 7.13 10.88 7.13C11.1 7.13 11.33 7.14 11.55 7.15C11.77 7.16 11.98 7.17 12.17 7.18C12.37 7.2 12.55 7.22 12.73 7.24C12.9 7.26 13.05 7.28 13.19 7.3C13.33 7.32 13.45 7.34 13.55 7.36C13.65 7.38 13.73 7.39 13.79 7.4L13.89 7.42Z" />
				</g>
			</g>
		</g>
	</g>
</svg>